<?xml version="1.0" encoding="UTF-8"?>
<!DOCTYPE svg PUBLIC "-//W3C//DTD SVG 1.1//EN" "http://www.w3.org/Graphics/SVG/1.1/DTD/svg11.dtd">
<!-- Creator: CorelDRAW X7 -->
<svg xmlns="http://www.w3.org/2000/svg" xml:space="preserve" width="40mm" height="40mm" version="1.1" style="shape-rendering:geometricPrecision; text-rendering:geometricPrecision; image-rendering:optimizeQuality; fill-rule:evenodd; clip-rule:evenodd"
viewBox="0 0 4000 4000"
 xmlns:xlink="http://www.w3.org/1999/xlink">
 <defs>
  <style type="text/css">
   <![CDATA[
    .fil4 {fill:url(#id0)}
    .fil9 {fill:url(#id1)}
    .fil6 {fill:url(#id2)}
    .fil11 {fill:url(#id3)}
    .fil0 {fill:url(#id4)}
    .fil10 {fill:url(#id5)}
    .fil5 {fill:url(#id6)}
    .fil12 {fill:url(#id7)}
    .fil8 {fill:url(#id8)}
    .fil1 {fill:url(#id9)}
    .fil7 {fill:url(#id10)}
    .fil3 {fill:url(#id11)}
    .fil2 {fill:url(#id12)}
   ]]>
  </style>
  <linearGradient id="id0" gradientUnits="userSpaceOnUse" x1="2525.83" y1="2770.21" x2="3421.61" y2="1073.51">
   <stop offset="0" style="stop-opacity:1; stop-color:#C45656"/>
   <stop offset="1" style="stop-opacity:1; stop-color:#204682"/>
  </linearGradient>
  <linearGradient id="id1" gradientUnits="userSpaceOnUse" xlink:href="#id0" x1="1563.86" y1="3926.15" x2="2151.19" y2="2617.71">
  </linearGradient>
  <linearGradient id="id2" gradientUnits="userSpaceOnUse" xlink:href="#id0" x1="-33.5" y1="2660.7" x2="711.57" y2="1988.38">
  </linearGradient>
  <linearGradient id="id3" gradientUnits="userSpaceOnUse" xlink:href="#id0" x1="3246.26" y1="3960.24" x2="3399.47" y2="3570.59">
  </linearGradient>
  <linearGradient id="id4" gradientUnits="userSpaceOnUse" xlink:href="#id0" x1="173.4" y1="1154.93" x2="1145.17" y2="234.85">
  </linearGradient>
  <linearGradient id="id5" gradientUnits="userSpaceOnUse" xlink:href="#id0" x1="551.1" y1="3004.93" x2="597.7" y2="2773.87">
  </linearGradient>
  <linearGradient id="id6" gradientUnits="userSpaceOnUse" xlink:href="#id0" x1="3683.81" y1="2081.87" x2="3943.79" y2="1725.23">
  </linearGradient>
  <linearGradient id="id7" gradientUnits="userSpaceOnUse" xlink:href="#id0" x1="83.7" y1="518.54" x2="516.77" y2="99.99">
  </linearGradient>
  <linearGradient id="id8" gradientUnits="userSpaceOnUse" xlink:href="#id0" x1="1369.25" y1="3982.46" x2="1534.48" y2="3586.63">
  </linearGradient>
  <linearGradient id="id9" gradientUnits="userSpaceOnUse" xlink:href="#id0" x1="1673.94" y1="863.61" x2="2147.88" y2="-24.92">
  </linearGradient>
  <linearGradient id="id10" gradientUnits="userSpaceOnUse" xlink:href="#id0" x1="3521.89" y1="2814.81" x2="4015.21" y2="2504.61">
  </linearGradient>
  <linearGradient id="id11" gradientUnits="userSpaceOnUse" xlink:href="#id0" x1="1638.87" y1="2491.19" x2="2683.61" y2="501.03">
  </linearGradient>
  <linearGradient id="id12" gradientUnits="userSpaceOnUse" xlink:href="#id0" x1="3152.39" y1="805.82" x2="3688.4" y2="57.94">
  </linearGradient>
 </defs>
 <g id="Layer_x0020_1">
  <metadata id="CorelCorpID_0Corel-Layer"/>
  <g id="_2133032932704">
   <path class="fil0" d="M857 0l265 0c98,101 173,195 190,284 26,132 -44,228 -274,274 -186,36 -324,78 -370,130 -20,23 12,69 122,150 86,63 139,131 159,198 21,70 9,135 -38,193 -37,46 -97,84 -179,111 -150,50 -393,67 -731,31l0 -189c319,37 541,23 672,-20 47,-15 77,-33 92,-51 5,-6 7,-14 4,-22 -8,-28 -39,-62 -91,-101 -226,-167 -256,-305 -151,-424 78,-88 251,-146 475,-191 96,-18 130,-36 126,-53 -13,-67 -130,-182 -261,-310l-10 -10z"/>
   <path class="fil1" d="M2510 0l188 0c-7,229 -164,431 -419,579 -242,141 -575,234 -949,256 -66,3 -135,5 -206,4l2 -187c65,0 129,-1 193,-5 345,-19 649,-104 866,-230 197,-114 319,-260 325,-417z"/>
   <path class="fil2" d="M4001 642l0 206c-174,-89 -413,-141 -617,-184 -110,-24 -210,-46 -293,-72 -124,-39 -206,-125 -237,-217 -16,-47 -19,-96 -8,-142 11,-47 37,-91 77,-127 76,-69 208,-110 402,-81l-27 186c-131,-20 -211,-1 -250,33 -10,10 -16,21 -19,32 -3,13 -2,26 2,39 14,40 54,79 116,99 70,22 168,43 276,66 185,40 397,85 578,162z"/>
   <path class="fil3" d="M3402 1043c-855,-90 -898,130 -932,307 -35,179 -65,331 -386,315 -229,-12 -494,-16 -700,10 -169,22 -292,57 -295,113 -2,47 24,83 71,110 67,38 170,61 297,73l-17 186c-154,-14 -282,-44 -373,-96 -111,-64 -171,-156 -165,-283 9,-172 200,-255 458,-288 221,-28 496,-24 732,-12 160,8 176,-71 194,-163 49,-252 110,-566 1135,-458l-19 186z"/>
   <path class="fil4" d="M4001 1390l0 187c-362,-24 -607,-7 -760,38 -76,22 -124,49 -148,80 -16,21 -19,47 -11,76 13,49 50,105 106,165 79,87 163,206 134,321 -29,115 -159,204 -495,207 -188,2 -415,-13 -586,-66 -91,-28 -168,-67 -220,-122 -63,-65 -90,-146 -66,-246 14,-56 45,-116 97,-181l147 116c-34,43 -54,80 -62,110 -7,29 1,53 19,72 28,29 78,53 140,72 150,47 357,60 529,58 226,-2 306,-30 315,-65 9,-34 -42,-98 -89,-149 -76,-82 -129,-165 -150,-245 -23,-86 -11,-167 44,-238 48,-61 127,-111 244,-145 170,-49 432,-69 812,-45z"/>
   <path class="fil5" d="M4001 1850l0 190c-117,-20 -241,-53 -374,-93l53 -180c115,34 222,64 321,83z"/>
   <path class="fil6" d="M1 2699l0 -187c261,-11 408,-46 472,-91 12,-8 17,-13 16,-14 -2,-15 -20,-37 -48,-62 -91,-79 -259,-156 -440,-202l0 -193c226,52 445,151 563,254 61,54 100,112 110,173 12,74 -15,142 -93,197 -91,64 -273,112 -580,125z"/>
   <path class="fil7" d="M4001 2296l0 188c-77,-9 -147,-10 -203,-1 -38,6 -64,15 -74,27 -1,1 1,7 6,20 27,63 110,151 271,270l0 230c-265,-181 -400,-322 -444,-428 -37,-88 -24,-160 26,-216 41,-46 105,-75 185,-88 66,-10 146,-11 233,-2z"/>
   <path class="fil8" d="M1967 4000l-349 0c-19,-17 -37,-33 -56,-49 -136,-121 -262,-232 -597,-180l-29 -185c423,-66 579,73 750,225 78,68 159,140 281,189z"/>
   <path class="fil9" d="M708 4000l-273 0c-239,-255 -240,-448 -122,-595 186,-232 700,-300 967,-336l7 -1c137,-18 135,-86 133,-157 -3,-140 -7,-282 233,-349 70,-20 224,-22 416,-12 205,11 459,35 704,66 161,21 347,73 482,145 133,72 225,167 224,283 -2,284 -250,338 -548,336 -86,-1 -171,-6 -255,-11 -138,-8 -273,-16 -371,-3 -146,18 -232,50 -266,85 -3,3 -5,-2 -4,1 0,1 4,6 13,14 51,47 166,88 335,105l-18 186c-212,-20 -366,-81 -444,-153 -43,-41 -68,-87 -73,-136 -5,-53 14,-103 57,-148 62,-63 185,-115 376,-140 117,-15 259,-6 406,2 84,5 170,10 245,10 196,2 359,-22 360,-149 0,-35 -51,-77 -125,-117 -115,-62 -276,-106 -418,-124 -238,-31 -488,-54 -689,-65 -174,-9 -307,-9 -357,5 -99,28 -97,97 -96,165 4,155 8,307 -296,347l-7 1c-241,32 -706,93 -845,267 -74,93 -33,240 249,478z"/>
   <path class="fil10" d="M1 2974l0 -188c269,-26 447,-5 604,13 162,19 300,34 498,-14l45 181c-232,58 -384,40 -564,19 -151,-17 -322,-37 -583,-11z"/>
   <path class="fil11" d="M2940 4000l-213 0c141,-325 363,-322 597,-318 158,2 324,4 449,-151l146 117c-182,227 -394,223 -597,221 -146,-2 -286,-4 -382,131z"/>
   <path class="fil12" d="M364 0l205 0c17,47 28,94 30,141 4,95 -23,185 -90,263 -89,105 -251,184 -508,215l0 -188c191,-25 307,-79 366,-148 34,-40 47,-85 45,-133 -2,-48 -20,-99 -48,-150z"/>
  </g>
 </g>
</svg>
