<?xml version="1.0" encoding="UTF-8"?>
<!DOCTYPE svg PUBLIC "-//W3C//DTD SVG 1.1//EN" "http://www.w3.org/Graphics/SVG/1.1/DTD/svg11.dtd">
<!-- Creator: CorelDRAW X7 -->
<svg xmlns="http://www.w3.org/2000/svg" xml:space="preserve" width="40mm" height="40mm" version="1.1" style="shape-rendering:geometricPrecision; text-rendering:geometricPrecision; image-rendering:optimizeQuality; fill-rule:evenodd; clip-rule:evenodd"
viewBox="0 0 4000 4000"
 xmlns:xlink="http://www.w3.org/1999/xlink">
 <defs>
  <style type="text/css">
   <![CDATA[
    .fil5 {fill:url(#id0)}
    .fil2 {fill:url(#id1)}
    .fil8 {fill:url(#id2)}
    .fil7 {fill:url(#id3)}
    .fil18 {fill:url(#id4)}
    .fil6 {fill:url(#id5)}
    .fil14 {fill:url(#id6)}
    .fil21 {fill:url(#id7)}
    .fil20 {fill:url(#id8)}
    .fil4 {fill:url(#id9)}
    .fil15 {fill:url(#id10)}
    .fil16 {fill:url(#id11)}
    .fil1 {fill:url(#id12)}
    .fil10 {fill:url(#id13)}
    .fil0 {fill:url(#id14)}
    .fil11 {fill:url(#id15)}
    .fil9 {fill:url(#id16)}
    .fil19 {fill:url(#id17)}
    .fil13 {fill:url(#id18)}
    .fil12 {fill:url(#id19)}
    .fil3 {fill:url(#id20)}
    .fil17 {fill:url(#id21)}
   ]]>
  </style>
  <linearGradient id="id0" gradientUnits="userSpaceOnUse" x1="1812.71" y1="749.09" x2="2171.58" y2="-3.47">
   <stop offset="0" style="stop-opacity:1; stop-color:#C45656"/>
   <stop offset="1" style="stop-opacity:1; stop-color:#204682"/>
  </linearGradient>
  <linearGradient id="id1" gradientUnits="userSpaceOnUse" xlink:href="#id0" x1="1785.52" y1="3309.94" x2="2021.53" y2="3073.94">
  </linearGradient>
  <linearGradient id="id2" gradientUnits="userSpaceOnUse" xlink:href="#id0" x1="3474.01" y1="497.37" x2="3823.98" y2="37.37">
  </linearGradient>
  <linearGradient id="id3" gradientUnits="userSpaceOnUse" xlink:href="#id0" x1="639.65" y1="736.39" x2="945.23" y2="96.96">
  </linearGradient>
  <linearGradient id="id4" gradientUnits="userSpaceOnUse" xlink:href="#id0" x1="2116.44" y1="3986.31" x2="2426.37" y2="3703.21">
  </linearGradient>
  <linearGradient id="id5" gradientUnits="userSpaceOnUse" xlink:href="#id0" x1="2609.07" y1="2035.03" x2="3461.3" y2="721.8">
  </linearGradient>
  <linearGradient id="id6" gradientUnits="userSpaceOnUse" xlink:href="#id0" x1="322.94" y1="3210.21" x2="854.8" y2="2938.14">
  </linearGradient>
  <linearGradient id="id7" gradientUnits="userSpaceOnUse" xlink:href="#id0" x1="24.79" y1="928.84" x2="376.81" y2="709.39">
  </linearGradient>
  <linearGradient id="id8" gradientUnits="userSpaceOnUse" xlink:href="#id0" x1="1463.67" y1="3897.18" x2="1966.53" y2="3560">
  </linearGradient>
  <linearGradient id="id9" gradientUnits="userSpaceOnUse" xlink:href="#id0" x1="2838.23" y1="1143.3" x2="3741.67" y2="153.43">
  </linearGradient>
  <linearGradient id="id10" gradientUnits="userSpaceOnUse" xlink:href="#id0" x1="705.12" y1="1725.03" x2="1547.34" y2="1310.85">
  </linearGradient>
  <linearGradient id="id11" gradientUnits="userSpaceOnUse" xlink:href="#id0" x1="3387.6" y1="3798.2" x2="3781.72" y2="3554.56">
  </linearGradient>
  <linearGradient id="id12" gradientUnits="userSpaceOnUse" xlink:href="#id0" x1="3400.47" y1="2359.61" x2="3636.48" y2="2123.61">
  </linearGradient>
  <linearGradient id="id13" gradientUnits="userSpaceOnUse" xlink:href="#id0" x1="827.22" y1="2689.66" x2="2141.28" y2="2122.59">
  </linearGradient>
  <linearGradient id="id14" gradientUnits="userSpaceOnUse" xlink:href="#id0" x1="1779.3" y1="1309.98" x2="2015.31" y2="1073.97">
  </linearGradient>
  <linearGradient id="id15" gradientUnits="userSpaceOnUse" xlink:href="#id0" x1="792.39" y1="3898.67" x2="1229.04" y2="3595.52">
  </linearGradient>
  <linearGradient id="id16" gradientUnits="userSpaceOnUse" xlink:href="#id0" x1="2152.46" y1="2950.58" x2="3238.49" y2="2466.72">
  </linearGradient>
  <linearGradient id="id17" gradientUnits="userSpaceOnUse" xlink:href="#id0" x1="1771.82" y1="2675.57" x2="2541.87" y2="2283.75">
  </linearGradient>
  <linearGradient id="id18" gradientUnits="userSpaceOnUse" xlink:href="#id0" x1="75.54" y1="2222.15" x2="647.61" y2="2030.19">
  </linearGradient>
  <linearGradient id="id19" gradientUnits="userSpaceOnUse" xlink:href="#id0" x1="2857.11" y1="3288.49" x2="3547.23" y2="2966.67">
  </linearGradient>
  <linearGradient id="id20" gradientUnits="userSpaceOnUse" xlink:href="#id0" x1="717.13" y1="2449.79" x2="953.14" y2="2213.78">
  </linearGradient>
  <linearGradient id="id21" gradientUnits="userSpaceOnUse" xlink:href="#id0" x1="3782.29" y1="2635.66" x2="3970.66" y2="2575.71">
  </linearGradient>
 </defs>
 <g id="Layer_x0020_1">
  <metadata id="CorelCorpID_0Corel-Layer"/>
  <g id="_2133179678928">
   <path class="fil0" d="M1897 1074c65,0 118,53 118,118 0,65 -53,118 -118,118 -65,0 -118,-53 -118,-118 0,-65 53,-118 118,-118z"/>
   <path class="fil1" d="M3518 2124c66,0 118,52 118,118 0,65 -52,118 -118,118 -65,0 -118,-53 -118,-118 0,-66 53,-118 118,-118z"/>
   <path class="fil2" d="M1904 3074c65,0 118,53 118,118 0,65 -53,118 -118,118 -66,0 -118,-53 -118,-118 0,-65 52,-118 118,-118z"/>
   <path class="fil3" d="M835 2214c65,0 118,53 118,118 0,65 -53,118 -118,118 -65,0 -118,-53 -118,-118 0,-65 53,-118 118,-118z"/>
   <path class="fil4" d="M2690 0l255 0c-93,94 -166,174 -176,226 -3,17 31,35 127,54 224,44 397,102 474,191 105,118 75,256 -151,423 -52,39 -82,73 -91,101 -2,9 -1,16 4,23 15,18 45,35 92,50 145,48 402,60 776,8l0 189c-393,51 -670,36 -835,-18 -81,-27 -141,-66 -179,-112 -46,-57 -59,-123 -38,-193 20,-67 74,-135 160,-198 109,-81 141,-127 122,-149 -47,-53 -184,-94 -370,-131 -231,-45 -301,-142 -275,-274 12,-60 51,-123 105,-190z"/>
   <path class="fil5" d="M1211 0l194 0c41,121 150,232 308,324 217,126 520,210 865,230 64,3 129,5 193,4l2 187c-71,1 -139,0 -205,-4 -375,-21 -708,-115 -949,-255 -220,-128 -367,-296 -408,-486z"/>
   <path class="fil6" d="M2775 1107c-132,-20 -212,-1 -250,33 -10,10 -17,21 -20,32 -2,13 -1,26 3,40 13,40 53,78 116,98 70,22 168,43 276,66 294,63 656,141 854,335l-130 134c-160,-156 -493,-227 -763,-285 -110,-24 -211,-46 -294,-72 -123,-39 -206,-125 -237,-217 -15,-47 -18,-96 -7,-142 11,-47 36,-91 77,-127 76,-69 208,-109 402,-81l-27 186z"/>
   <path class="fil7" d="M84 95c422,-66 579,73 750,224 138,123 287,255 664,249l3 187c-450,7 -627,-150 -791,-295 -137,-122 -262,-232 -597,-180l-29 -185z"/>
   <path class="fil8" d="M3303 0l191 0c-5,19 -8,38 -8,56 -3,48 11,94 44,133 70,81 217,141 470,158l0 187c-318,-19 -512,-106 -612,-223 -67,-79 -94,-169 -89,-263 0,-16 2,-32 4,-48z"/>
   <polygon class="fil9" points="3042,1993 2526,3486 2349,3425 2865,1932 "/>
   <polygon class="fil10" points="1874,1564 1271,3309 1095,3248 1697,1503 "/>
   <polygon class="fil11" points="1033,4000 835,4000 1010,3494 1187,3555 "/>
   <polygon class="fil12" points="3502,2545 3079,3771 2902,3710 3325,2484 "/>
   <polygon class="fil13" points="0,3204 0,2631 546,1048 723,1109 "/>
   <polygon class="fil14" points="829,2667 526,3543 349,3482 652,2606 "/>
   <polygon class="fil15" points="1388,1047 1042,2050 865,1989 1211,986 "/>
   <polygon class="fil16" points="3582,4000 3384,4000 3608,3352 3785,3413 "/>
   <polygon class="fil17" points="4000,2218 4000,2791 3930,2994 3753,2933 "/>
   <polygon class="fil18" points="2327,4000 2129,4000 2237,3689 2414,3750 "/>
   <polygon class="fil19" points="2399,2064 2091,2956 1915,2895 2222,2003 "/>
   <polygon class="fil20" points="1731,4000 1533,4000 1721,3457 1897,3518 "/>
   <polygon class="fil21" points="375,600 203,1099 26,1038 199,539 "/>
  </g>
 </g>
</svg>
