<?xml version="1.0" encoding="UTF-8"?>
<!DOCTYPE svg PUBLIC "-//W3C//DTD SVG 1.1//EN" "http://www.w3.org/Graphics/SVG/1.1/DTD/svg11.dtd">
<!-- Creator: CorelDRAW X7 -->
<svg xmlns="http://www.w3.org/2000/svg" xml:space="preserve" width="40mm" height="40mm" version="1.1" style="shape-rendering:geometricPrecision; text-rendering:geometricPrecision; image-rendering:optimizeQuality; fill-rule:evenodd; clip-rule:evenodd"
viewBox="0 0 4000 4000"
 xmlns:xlink="http://www.w3.org/1999/xlink">
 <defs>
  <style type="text/css">
   <![CDATA[
    .fil13 {fill:url(#id0)}
    .fil3 {fill:url(#id1)}
    .fil8 {fill:url(#id2)}
    .fil2 {fill:url(#id3)}
    .fil1 {fill:url(#id4)}
    .fil0 {fill:url(#id5)}
    .fil18 {fill:url(#id6)}
    .fil17 {fill:url(#id7)}
    .fil7 {fill:url(#id8)}
    .fil10 {fill:url(#id9)}
    .fil19 {fill:url(#id10)}
    .fil12 {fill:url(#id11)}
    .fil11 {fill:url(#id12)}
    .fil20 {fill:url(#id13)}
    .fil16 {fill:url(#id14)}
    .fil4 {fill:url(#id15)}
    .fil15 {fill:url(#id16)}
    .fil9 {fill:url(#id17)}
    .fil14 {fill:url(#id18)}
    .fil5 {fill:url(#id19)}
    .fil6 {fill:url(#id20)}
   ]]>
  </style>
  <linearGradient id="id0" gradientUnits="userSpaceOnUse" x1="590.4" y1="3922.22" x2="928.75" y2="3661.83">
   <stop offset="0" style="stop-opacity:1; stop-color:#C45656"/>
   <stop offset="1" style="stop-opacity:1; stop-color:#204682"/>
  </linearGradient>
  <linearGradient id="id1" gradientUnits="userSpaceOnUse" xlink:href="#id0" x1="3408.09" y1="372.13" x2="3538.28" y2="33.47">
  </linearGradient>
  <linearGradient id="id2" gradientUnits="userSpaceOnUse" xlink:href="#id0" x1="46.66" y1="406.01" x2="396.29" y2="98.22">
  </linearGradient>
  <linearGradient id="id3" gradientUnits="userSpaceOnUse" xlink:href="#id0" x1="925.9" y1="2506.87" x2="1570.03" y2="1439.42">
  </linearGradient>
  <linearGradient id="id4" gradientUnits="userSpaceOnUse" xlink:href="#id0" x1="1674.05" y1="843.73" x2="2126.11" y2="-13.18">
  </linearGradient>
  <linearGradient id="id5" gradientUnits="userSpaceOnUse" xlink:href="#id0" x1="223.08" y1="1111.46" x2="1120.06" y2="172.03">
  </linearGradient>
  <linearGradient id="id6" gradientUnits="userSpaceOnUse" xlink:href="#id0" x1="8.2" y1="3857.89" x2="187.14" y2="3765.17">
  </linearGradient>
  <linearGradient id="id7" gradientUnits="userSpaceOnUse" xlink:href="#id0" x1="3559.58" y1="3713.67" x2="3895.54" y2="3505.62">
  </linearGradient>
  <linearGradient id="id8" gradientUnits="userSpaceOnUse" xlink:href="#id0" x1="-54.79" y1="2129.84" x2="567.42" y2="1668.44">
  </linearGradient>
  <linearGradient id="id9" gradientUnits="userSpaceOnUse" xlink:href="#id0" x1="1554.22" y1="3142.35" x2="2063.24" y2="2827.14">
  </linearGradient>
  <linearGradient id="id10" gradientUnits="userSpaceOnUse" xlink:href="#id0" x1="1358.21" y1="3996.52" x2="1639.72" y2="3722.57">
  </linearGradient>
  <linearGradient id="id11" gradientUnits="userSpaceOnUse" xlink:href="#id0" x1="180.68" y1="2920.34" x2="587.92" y2="2668.16">
  </linearGradient>
  <linearGradient id="id12" gradientUnits="userSpaceOnUse" xlink:href="#id0" x1="816.57" y1="3078.45" x2="1325.59" y2="2763.24">
  </linearGradient>
  <linearGradient id="id13" gradientUnits="userSpaceOnUse" xlink:href="#id0" x1="3598.15" y1="2579.61" x2="4053.32" y2="2248.24">
  </linearGradient>
  <linearGradient id="id14" gradientUnits="userSpaceOnUse" xlink:href="#id0" x1="3059.59" y1="2917.56" x2="3538.07" y2="2621.26">
  </linearGradient>
  <linearGradient id="id15" gradientUnits="userSpaceOnUse" xlink:href="#id0" x1="2012.31" y1="1966.7" x2="2839.4" y2="391.17">
  </linearGradient>
  <linearGradient id="id16" gradientUnits="userSpaceOnUse" xlink:href="#id0" x1="2750.27" y1="3931.58" x2="3140.97" y2="3636.88">
  </linearGradient>
  <linearGradient id="id17" gradientUnits="userSpaceOnUse" xlink:href="#id0" x1="2303.83" y1="2853.97" x2="2812.85" y2="2538.77">
  </linearGradient>
  <linearGradient id="id18" gradientUnits="userSpaceOnUse" xlink:href="#id0" x1="2018.01" y1="3717.84" x2="2527.04" y2="3402.63">
  </linearGradient>
  <linearGradient id="id19" gradientUnits="userSpaceOnUse" xlink:href="#id0" x1="2583.27" y1="2391.35" x2="3517.87" y2="755.74">
  </linearGradient>
  <linearGradient id="id20" gradientUnits="userSpaceOnUse" xlink:href="#id0" x1="3712.23" y1="1823.56" x2="3969.91" y2="1511.73">
  </linearGradient>
 </defs>
 <g id="Layer_x0020_1">
  <metadata id="CorelCorpID_0Corel-Layer"/>
  <g id="_2134492802864">
   <path class="fil0" d="M992 0l252 0c48,62 83,120 94,177 26,132 -44,228 -274,274 -186,36 -324,78 -370,130 -20,23 12,69 122,150 85,63 139,131 159,198 21,70 8,135 -38,193 -38,46 -97,84 -179,111 -154,51 -406,68 -758,28l0 -189c333,41 564,28 699,-17 47,-15 77,-32 92,-50 5,-7 7,-15 4,-23 -8,-28 -39,-62 -91,-101 -226,-167 -256,-305 -151,-424 78,-88 251,-146 475,-190 96,-19 129,-37 126,-54 -10,-49 -76,-125 -162,-213z"/>
   <path class="fil1" d="M2499 0l188 0c-11,225 -167,424 -419,571 -241,140 -575,234 -949,255 -66,3 -135,5 -205,4l2 -187c64,1 128,-1 193,-4 344,-20 648,-104 865,-230 194,-113 314,-255 325,-409z"/>
   <path class="fil2" d="M1851 2313c-92,21 -192,28 -294,22 -195,-11 -397,-69 -559,-165 -171,-101 -300,-244 -341,-418 -10,-46 -14,-94 -11,-143l187 10c-2,32 1,62 7,91 28,120 124,222 253,298 137,81 309,131 475,140 84,5 166,-1 241,-18l42 183z"/>
   <path class="fil3" d="M2947 0l259 0c7,3 14,6 22,8 69,22 168,44 276,67 157,34 335,72 496,130l0 200c-163,-67 -362,-110 -535,-147 -111,-23 -211,-45 -294,-71 -109,-35 -187,-107 -224,-187z"/>
   <path class="fil4" d="M3666 726c-854,-90 -897,130 -932,307 -35,179 -64,331 -386,315 -228,-12 -493,-16 -700,10 -168,22 -291,56 -294,113 -2,47 23,83 71,110 67,38 169,61 296,73l-16 186c-154,-14 -283,-44 -374,-96 -111,-64 -170,-156 -164,-283 9,-173 199,-255 458,-288 220,-29 496,-24 732,-13 160,8 175,-70 193,-162 49,-252 111,-566 1135,-458l-19 186z"/>
   <path class="fil5" d="M4000 1034l0 187c-278,-10 -474,8 -604,45 -76,23 -124,50 -148,81 -16,20 -19,46 -11,76 13,48 50,105 106,165 79,86 163,205 134,321 -29,115 -159,204 -495,207 -188,2 -416,-13 -586,-66 -91,-28 -168,-68 -220,-122 -63,-65 -90,-146 -66,-246 14,-56 45,-116 97,-182l147 116c-34,44 -54,81 -62,111 -7,29 1,53 19,71 28,30 78,54 140,73 150,46 357,59 529,58 226,-2 306,-30 315,-65 8,-35 -42,-98 -90,-149 -75,-82 -128,-166 -149,-246 -23,-85 -11,-166 44,-237 47,-61 127,-111 244,-145 145,-43 359,-63 656,-53z"/>
   <path class="fil6" d="M4000 1607l0 192c-100,-20 -206,-49 -318,-83l54 -180c93,28 181,53 264,71z"/>
   <path class="fil7" d="M0 2245l0 -187c161,-17 259,-45 309,-80 11,-8 16,-12 16,-14 -2,-15 -20,-37 -48,-62 -63,-54 -162,-108 -277,-151l0 -198c164,55 310,130 400,209 61,53 100,111 110,172 12,75 -15,142 -93,197 -74,52 -207,93 -417,114z"/>
   <path class="fil8" d="M245 0l192 0c3,18 5,36 6,53 4,95 -23,185 -90,263 -69,82 -184,148 -353,188l0 -192c101,-29 170,-69 211,-118 33,-39 47,-84 45,-132 -1,-20 -5,-41 -11,-62z"/>
   <polygon class="fil9" points="2734,2473 2559,2981 2382,2920 2558,2412 "/>
   <polygon class="fil10" points="1985,2761 1809,3269 1633,3208 1808,2700 "/>
   <polygon class="fil11" points="1247,2697 1072,3205 895,3144 1070,2637 "/>
   <polygon class="fil12" points="560,2571 385,3079 208,3018 384,2510 "/>
   <polygon class="fil13" points="797,4000 599,4000 743,3584 920,3645 "/>
   <polygon class="fil14" points="2449,3337 2273,3845 2096,3784 2272,3276 "/>
   <polygon class="fil15" points="2980,4000 2783,4000 2932,3568 3109,3629 "/>
   <polygon class="fil16" points="3475,2546 3300,3054 3123,2993 3298,2485 "/>
   <polygon class="fil17" points="3904,3386 3728,3894 3552,3833 3727,3325 "/>
   <polygon class="fil18" points="86,4000 0,4000 0,3677 19,3623 196,3684 "/>
   <polygon class="fil19" points="1560,4000 1362,4000 1459,3719 1636,3780 "/>
  </g>
  <path class="fil20" d="M4000 2653c-38,-7 -74,-15 -108,-26 -73,-22 -135,-54 -178,-99 -53,-54 -75,-122 -55,-206 12,-46 36,-95 78,-147l140 110c-25,32 -40,58 -45,80 -4,16 0,30 10,40 20,21 57,38 102,52 18,6 36,11 56,15l0 181z"/>
 </g>
</svg>
