<?xml version="1.0" encoding="UTF-8"?>
<!DOCTYPE svg PUBLIC "-//W3C//DTD SVG 1.1//EN" "http://www.w3.org/Graphics/SVG/1.1/DTD/svg11.dtd">
<!-- Creator: CorelDRAW X7 -->
<svg xmlns="http://www.w3.org/2000/svg" xml:space="preserve" width="40mm" height="40mm" version="1.1" style="shape-rendering:geometricPrecision; text-rendering:geometricPrecision; image-rendering:optimizeQuality; fill-rule:evenodd; clip-rule:evenodd"
viewBox="0 0 4000 4000"
 xmlns:xlink="http://www.w3.org/1999/xlink">
 <defs>
  <style type="text/css">
   <![CDATA[
    .fil8 {fill:url(#id0)}
    .fil2 {fill:url(#id1)}
    .fil13 {fill:url(#id2)}
    .fil15 {fill:url(#id3)}
    .fil14 {fill:url(#id4)}
    .fil10 {fill:url(#id5)}
    .fil11 {fill:url(#id6)}
    .fil6 {fill:url(#id7)}
    .fil3 {fill:url(#id8)}
    .fil16 {fill:url(#id9)}
    .fil9 {fill:url(#id10)}
    .fil1 {fill:url(#id11)}
    .fil4 {fill:url(#id12)}
    .fil7 {fill:url(#id13)}
    .fil5 {fill:url(#id14)}
    .fil12 {fill:url(#id15)}
    .fil0 {fill:url(#id16)}
   ]]>
  </style>
  <linearGradient id="id0" gradientUnits="userSpaceOnUse" x1="1248.36" y1="3068.77" x2="2761.24" y2="2531.69">
   <stop offset="0" style="stop-opacity:1; stop-color:#C45656"/>
   <stop offset="1" style="stop-opacity:1; stop-color:#204682"/>
  </linearGradient>
  <linearGradient id="id1" gradientUnits="userSpaceOnUse" xlink:href="#id0" x1="3277.21" y1="773.86" x2="3784.81" y2="134.32">
  </linearGradient>
  <linearGradient id="id2" gradientUnits="userSpaceOnUse" xlink:href="#id0" x1="2202.07" y1="3831.72" x2="2944.46" y2="3353.09">
  </linearGradient>
  <linearGradient id="id3" gradientUnits="userSpaceOnUse" xlink:href="#id0" x1="3266.12" y1="3964.72" x2="3520.57" y2="3716.97">
  </linearGradient>
  <linearGradient id="id4" gradientUnits="userSpaceOnUse" xlink:href="#id0" x1="2743.07" y1="3844.77" x2="3315.09" y2="3455.98">
  </linearGradient>
  <linearGradient id="id5" gradientUnits="userSpaceOnUse" xlink:href="#id0" x1="383.99" y1="3572.42" x2="1193.2" y2="3115.27">
  </linearGradient>
  <linearGradient id="id6" gradientUnits="userSpaceOnUse" xlink:href="#id0" x1="26.97" y1="3501.47" x2="643.79" y2="3186.22">
  </linearGradient>
  <linearGradient id="id7" gradientUnits="userSpaceOnUse" xlink:href="#id0" x1="253.61" y1="2655.01" x2="847.93" y2="1677.29">
  </linearGradient>
  <linearGradient id="id8" gradientUnits="userSpaceOnUse" xlink:href="#id0" x1="1348.09" y1="2115.1" x2="2240.45" y2="415.19">
  </linearGradient>
  <linearGradient id="id9" gradientUnits="userSpaceOnUse" xlink:href="#id0" x1="894.33" y1="3983.3" x2="1186.94" y2="3698.4">
  </linearGradient>
  <linearGradient id="id10" gradientUnits="userSpaceOnUse" xlink:href="#id0" x1="839.56" y1="3226.91" x2="2216.25" y2="2669.06">
  </linearGradient>
  <linearGradient id="id11" gradientUnits="userSpaceOnUse" xlink:href="#id0" x1="1823.71" y1="490.4" x2="1986.74" y2="40.05">
  </linearGradient>
  <linearGradient id="id12" gradientUnits="userSpaceOnUse" xlink:href="#id0" x1="3369.28" y1="2542.91" x2="3867.17" y2="1826.96">
  </linearGradient>
  <linearGradient id="id13" gradientUnits="userSpaceOnUse" xlink:href="#id0" x1="2522.96" y1="3464.75" x2="3802.2" y2="2158.54">
  </linearGradient>
  <linearGradient id="id14" gradientUnits="userSpaceOnUse" xlink:href="#id0" x1="2850.17" y1="1599.79" x2="3040.13" y2="1083.73">
  </linearGradient>
  <linearGradient id="id15" gradientUnits="userSpaceOnUse" xlink:href="#id0" x1="18.89" y1="2820.24" x2="266.44" y2="2723.68">
  </linearGradient>
  <linearGradient id="id16" gradientUnits="userSpaceOnUse" xlink:href="#id0" x1="54.99" y1="986.86" x2="923.07" y2="353.62">
  </linearGradient>
 </defs>
 <g id="Layer_x0020_1">
  <metadata id="CorelCorpID_0Corel-Layer"/>
  <g id="_2133013760816">
   <path class="fil0" d="M568 0l261 0c75,83 129,160 144,234 26,133 -44,229 -275,274 -186,37 -323,78 -370,131 -19,22 13,68 122,149 86,64 139,131 160,198 21,70 8,136 -39,193 -37,47 -97,85 -179,112 -93,31 -224,49 -392,50l0 -187c145,0 255,-16 334,-41 47,-16 77,-33 92,-51 5,-7 6,-14 4,-22 -9,-28 -39,-63 -91,-102 -226,-167 -256,-304 -152,-423 78,-89 251,-147 475,-191 96,-19 130,-36 127,-54 -12,-60 -107,-158 -221,-270z"/>
   <path class="fil1" d="M2387 0l251 0c-72,102 -178,194 -311,271 -241,140 -575,234 -949,255 -66,4 -135,5 -206,4l3 -187c64,1 128,0 192,-4 345,-19 649,-104 866,-230 58,-34 110,-70 154,-109z"/>
   <path class="fil2" d="M4000 631l0 195c-129,-39 -268,-69 -393,-96 -111,-24 -211,-46 -294,-72 -123,-39 -206,-125 -237,-217 -16,-47 -18,-96 -7,-142 11,-47 36,-91 76,-127 76,-69 209,-109 403,-81l-28 186c-131,-20 -211,-1 -249,33 -11,10 -17,21 -20,32 -3,13 -2,26 3,39 13,41 53,79 116,99 69,22 168,43 276,66 112,24 235,51 354,85z"/>
   <path class="fil3" d="M3035 812c-855,-90 -898,130 -932,307 -35,179 -65,331 -386,315 -229,-12 -494,-16 -700,10 -169,22 -292,57 -295,113 -2,47 24,83 71,110 67,38 170,61 297,73l-17 186c-154,-14 -282,-44 -373,-96 -111,-64 -171,-156 -165,-283 9,-172 200,-255 458,-288 221,-28 496,-24 732,-12 160,8 176,-71 194,-163 49,-252 110,-566 1135,-458l-19 186z"/>
   <path class="fil4" d="M4000 2263l0 187c-9,0 -17,0 -26,0 -155,2 -343,-11 -485,-54 -76,-24 -142,-58 -187,-104 -56,-58 -79,-129 -58,-218 12,-48 39,-99 82,-155l148 116c-27,34 -42,62 -48,84 -4,18 0,32 11,43 21,22 59,40 107,55 121,37 288,48 428,46 10,0 19,0 28,0z"/>
   <path class="fil5" d="M2601 1195c142,43 272,77 389,94 112,17 213,17 305,-8l48 182c-119,31 -244,32 -379,12 -130,-19 -267,-55 -417,-100l54 -180z"/>
   <path class="fil6" d="M0 2025l0 -194c202,28 315,128 434,234 138,122 288,255 665,249l2 187c-449,7 -627,-150 -791,-296 -88,-78 -171,-152 -310,-180z"/>
   <path class="fil7" d="M4000 2582l0 280c-2,-2 -4,-4 -6,-6 -43,-45 -62,-95 -57,-148 4,-46 26,-88 63,-126zm0 862l0 188c-117,1 -209,-4 -258,-18 -240,-67 -236,-210 -233,-349 2,-71 4,-139 -133,-157l-7 -1c-267,-36 -781,-104 -967,-336 -145,-181 -109,-431 325,-780l117 146c-324,261 -374,420 -296,517 139,174 604,235 845,267l7 1c304,40 300,192 296,347 -1,68 -3,137 96,165 35,9 108,13 208,10z"/>
   <polygon class="fil8" points="1970,4000 1764,4000 2140,3167 1722,3167 1579,3167 1636,3036 2259,1601 2431,1675 1864,2979 2285,2979 2430,2979 2370,3112 "/>
   <polygon class="fil9" points="1619,4000 1412,4000 1661,3463 1244,3463 1102,3463 1159,3332 1782,1896 1953,1970 1387,3275 1807,3275 1954,3275 1893,3408 "/>
   <polygon class="fil10" points="622,4000 418,4000 988,2688 1159,2762 "/>
   <polygon class="fil11" points="133,4000 0,4000 0,3837 499,2688 671,2762 "/>
   <polygon class="fil12" points="0,3138 0,2668 114,2406 285,2481 "/>
   <polygon class="fil13" points="2514,4000 2311,4000 2664,3185 2836,3259 "/>
   <polygon class="fil14" points="2995,4000 2792,4000 3095,3301 3267,3375 "/>
   <polygon class="fil15" points="3442,4000 3238,4000 3377,3682 3548,3756 "/>
   <polygon class="fil16" points="1090,4000 886,4000 1024,3682 1196,3756 "/>
  </g>
 </g>
</svg>
