<?xml version="1.0" encoding="UTF-8"?>
<!DOCTYPE svg PUBLIC "-//W3C//DTD SVG 1.1//EN" "http://www.w3.org/Graphics/SVG/1.1/DTD/svg11.dtd">
<!-- Creator: CorelDRAW X7 -->
<svg xmlns="http://www.w3.org/2000/svg" xml:space="preserve" width="47mm" height="40mm" version="1.1" style="shape-rendering:geometricPrecision; text-rendering:geometricPrecision; image-rendering:optimizeQuality; fill-rule:evenodd; clip-rule:evenodd"
viewBox="0 0 4700 4000"
 xmlns:xlink="http://www.w3.org/1999/xlink">
 <defs>
  <style type="text/css">
   <![CDATA[
    .fil1 {fill:#2B2A29}
    .fil0 {fill:#2B2A29;fill-rule:nonzero}
   ]]>
  </style>
 </defs>
 <g id="Layer_x0020_1">
  <metadata id="CorelCorpID_0Corel-Layer"/>
  <g id="_1902772769584">
   <path class="fil0" d="M1220 2870c34,26 57,62 67,100 -98,62 -188,137 -266,222 -13,-6 -24,-13 -35,-22 -496,-388 -794,-771 -967,-1124 -10,-20 -19,-40 -29,-60l0 -1332c137,-247 348,-376 432,-661l776 0c47,157 -757,643 -698,1352 38,464 158,909 720,1525z"/>
   <path class="fil0" d="M1647 2688c19,40 22,82 14,122 -104,26 -166,46 -259,96 -26,-18 -48,-44 -62,-74 -371,-576 -622,-1081 -609,-1536 19,-640 824,-878 827,-1303l916 0c-60,620 -932,858 -1052,1411 -93,426 40,894 225,1284z"/>
   <path class="fil0" d="M2107 2649c17,53 8,93 -19,123 -33,-2 -66,-4 -99,-4 -58,0 -114,4 -169,11 -16,-22 -29,-48 -38,-78 -434,-1365 98,-1620 620,-1956 416,-269 601,-465 655,-752l746 0c-55,542 -360,906 -1123,1215 -417,169 -900,413 -573,1441z"/>
   <path class="fil0" d="M2579 2713c-7,66 -47,120 -102,149 -71,-28 -145,-51 -221,-66 -12,-35 -15,-76 -10,-120 -100,-1246 415,-1090 1256,-1499 298,-145 623,-716 696,-1184l514 0 0 211c-141,253 -293,1197 -1276,1499 -580,178 -760,346 -857,1010z"/>
   <path class="fil0" d="M2971 2979c-29,53 -80,87 -135,97 -68,-57 -142,-107 -220,-150 -9,-42 -4,-88 19,-129 376,-836 662,-749 1083,-851 988,-224 718,-795 994,-903l0 968c-290,218 -553,375 -824,441 -335,81 -583,76 -917,527z"/>
   <path class="fil0" d="M3266 3373c-39,36 -88,53 -137,51 -50,-86 -110,-167 -178,-239 9,-34 27,-66 55,-91 517,-557 1399,-240 1706,-801l0 914c-355,296 -922,-255 -1446,166z"/>
   <path class="fil0" d="M3379 3806c-31,12 -64,23 -95,31 -18,-96 -47,-188 -85,-275 15,-11 31,-20 49,-27 552,-385 1092,171 1464,-49l0 506 -456 0c-213,-92 -336,-292 -877,-186z"/>
   <path class="fil0" d="M825 3203c47,23 80,64 96,110 -56,77 -104,160 -142,248 -40,8 -83,4 -123,-16 -253,-125 -473,-247 -666,-366l0 -702c192,371 497,559 835,726z"/>
   <path class="fil0" d="M621 3668c39,6 74,24 101,49 -25,88 -42,180 -49,275l-678 0 0 -438c182,40 389,78 626,114z"/>
   <path class="fil1" d="M1989 2938c607,0 1107,462 1166,1054l-2332 0c59,-592 558,-1054 1166,-1054z"/>
   <path class="fil1" d="M-10 -8l0 382c123,-148 169,-236 216,-381l-216 -1z"/>
   <path class="fil1" d="M3299 3925c469,-143 620,21 732,67l-729 0c2,-19 0,-40 -3,-67z"/>
  </g>
 </g>
</svg>
